<svg id="Layer_1" enable-background="new 0 0 512 512" height="512" viewBox="0 0 512 512" width="512" xmlns="http://www.w3.org/2000/svg"><g><g><g><path d="m358.928 512h-73.27c-25.32 0-45.92-20.6-45.92-45.919 0-25.422 20.6-46.021 45.92-46.021h121.773c8.279 0 15.014-6.735 15.014-15.014s-6.735-15.015-15.014-15.015h-339.34v-30.905h339.34c25.32 0 45.919 20.6 45.919 45.919 0 25.32-20.6 45.92-45.919 45.92h-121.773c-8.279 0-15.014 6.735-15.014 15.014 0 8.38 6.735 15.116 15.014 15.116h73.27z" fill="#554cce"/></g></g><g><path d="m106.958 251.067-22.663 22.663-14.828 61.725 14.568 29.19 70.649-65.853z" fill="#ffea94"/><g><path d="m91.346 357.334-8.687 12.266 30.566 9.613 61.725-14.828 22.663-22.664-45.327-45.327z" fill="#ffd92e"/></g><path d="m310.923 47.102-133.704 133.704 90.491 90.818 133.868-133.868z" fill="#ffd92e"/><path d="m310.923 47.102-203.965 203.965c-12.517 12.517-12.517 32.811 0 45.327 12.517 12.517 32.811 12.517 45.327 0l203.966-203.965z" fill="#ffd92e"/><g><path d="m152.286 341.721c12.517 12.517 32.811 12.517 45.327 0l208.046-208.046-45.327-45.327-208.046 208.046c-12.517 12.517-12.517 32.811 0 45.327z" fill="#fcbe00"/></g><path d="m421.431 27.249-27.249-27.249h-36.157l-58.858 58.859 45.327 45.327 57.084-15.805z" fill="#e20a6c"/><path d="m448.68 54.497-27.249-27.248-76.937 76.937 45.327 45.327 58.859-58.858z" fill="#ad0551"/><g><path d="m58.649 380.488 9.543 9.543 45.033-10.818-43.758-43.758z" fill="#6e67d5"/></g><g><path d="m63.42 385.259 4.772 4.772 45.033-10.818-21.879-21.879z" fill="#554cce"/></g></g></g></svg>