<!DOCTYPE svg PUBLIC "-//W3C//DTD SVG 20010904//EN" "http://www.w3.org/TR/2001/REC-SVG-20010904/DTD/svg10.dtd">
<svg version="1.0" xmlns="http://www.w3.org/2000/svg" width="637px" height="176px" viewBox="0 0 6370 1760" preserveAspectRatio="xMidYMid meet">
<g id="layer101" fill="#ffffff" stroke="none">
 <path d="M4639 1275 c-78 -21 -137 -56 -193 -115 -132 -138 -160 -319 -77 -495 74 -159 245 -250 421 -225 88 13 158 47 228 114 76 71 112 147 122 254 14 155 -25 266 -127 363 -71 68 -104 86 -191 105 -80 16 -122 16 -183 -1z m191 -225 c9 -5 33 -27 52 -48 71 -78 71 -206 0 -284 -47 -52 -86 -71 -147 -71 -129 0 -223 128 -194 265 28 127 176 199 289 138z"/>
 <path d="M190 1262 c-24 -12 -37 -27 -42 -50 -5 -18 -7 -188 -6 -377 3 -343 3 -345 26 -367 22 -23 26 -23 300 -26 261 -2 278 -1 302 17 22 17 25 27 25 85 0 54 -4 69 -21 87 -21 20 -30 21 -218 21 -218 -1 -197 -8 -200 67 l-1 30 137 3 c167 4 179 11 180 101 1 106 -28 121 -215 115 -87 -3 -97 -1 -98 15 -1 9 -3 26 -4 37 -1 11 -3 65 -4 120 -1 92 -3 101 -23 114 -39 24 -100 28 -138 8z"/>
 <path d="M1448 1259 c-13 -13 -42 -66 -63 -116 l-39 -93 -83 0 -83 0 0 85 c0 78 -2 88 -25 110 -34 35 -121 36 -160 2 l-27 -22 1 -364 c1 -414 -1 -405 76 -416 24 -4 111 -5 192 -3 137 4 152 6 206 32 32 15 73 44 92 63 94 97 109 263 33 378 l-30 46 40 92 c22 51 43 102 46 113 15 49 -37 98 -119 111 -26 4 -38 0 -57 -18z m-74 -448 c39 -37 37 -100 -5 -136 -29 -24 -38 -26 -108 -23 l-76 3 -3 94 -3 93 85 -3 c73 -4 88 -7 110 -28z"/>
 <path d="M1855 1269 c-75 -12 -79 -37 -72 -457 5 -356 5 -356 79 -367 24 -3 155 -5 291 -3 248 3 249 3 268 27 32 39 23 148 -15 173 -6 4 -100 8 -208 8 l-198 0 0 50 0 50 113 0 c148 0 182 10 197 56 7 21 9 54 5 80 -10 67 -28 75 -184 77 l-131 2 0 48 0 47 195 0 196 0 26 26 c23 23 25 31 21 91 -5 82 -18 93 -107 93 -36 1 -150 2 -252 3 -102 1 -203 -1 -224 -4z"/>
 <path d="M2843 1270 c-167 -4 -195 -7 -210 -23 -17 -16 -18 -46 -18 -387 l0 -369 23 -23 c22 -23 25 -23 302 -23 278 0 280 0 302 23 19 18 23 33 23 82 -1 100 -1 100 -236 100 l-197 0 -4 49 -3 49 136 4 c170 4 179 9 179 105 0 100 -28 114 -223 110 -71 -2 -87 1 -88 13 0 8 -2 30 -5 48 l-4 32 189 0 c105 0 201 4 214 9 48 19 61 146 19 184 -22 19 -144 24 -399 17z"/>
 <path d="M3465 1245 l-25 -24 0 -364 c0 -344 1 -366 19 -388 18 -23 26 -24 168 -28 167 -3 228 6 317 51 324 163 285 640 -62 757 -52 18 -86 21 -227 21 -163 0 -166 0 -190 -25z m372 -206 c150 -73 156 -277 10 -359 -34 -20 -57 -24 -117 -25 l-75 0 -3 203 -2 202 72 0 c52 0 83 -6 115 -21z"/>
 <path d="M5346 1249 l-26 -20 0 -368 c0 -411 -1 -404 69 -416 82 -14 110 4 204 127 46 62 105 139 129 170 l44 57 116 -152 c153 -201 155 -202 229 -202 48 0 63 5 81 23 l23 23 0 370 0 371 -25 20 c-20 17 -36 19 -87 16 -100 -6 -98 -2 -98 -242 0 -112 -3 -202 -7 -200 -3 2 -39 49 -78 104 -82 114 -100 130 -150 130 -54 -1 -74 -18 -160 -135 l-80 -108 0 202 c0 201 0 202 -25 226 -33 33 -119 36 -159 4z"/>
 </g>

</svg>