<?xml version="1.0" encoding="iso-8859-1"?>
<!-- Generator: Adobe Illustrator 19.0.0, SVG Export Plug-In . SVG Version: 6.00 Build 0)  -->
<svg version="1.1" id="Capa_1" xmlns="http://www.w3.org/2000/svg" xmlns:xlink="http://www.w3.org/1999/xlink" x="0px" y="0px"
	 viewBox="0 0 512 512" style="enable-background:new 0 0 512 512;" xml:space="preserve">
<circle style="fill:#0088FF;" cx="256" cy="256" r="256"/>
<path style="fill:#3A4DE2;" d="M512,256c0-7.437-0.336-14.793-0.957-22.069l-78.34-78.34l-3.12,9.035l-47.113-47.113l-32.406,39.478
	l29.092,29.092l-36.25,21.41l30.095,30.095l-26.072,23.778l27.27,27.27l-0.519,10.733l-22.318-22.318l4.596,14.915L163.981,99.989
	l-29.873,83.34l-20.247-20.445l-26.382,28.143l39.227,39.228l-32.162,28.647l34.481,34.48L105.77,321.23l5.014,5.013l-47.117,71.423
	l95.272,95.272C188.874,505.215,221.642,512,256,512C397.385,512,512,397.385,512,256z"/>
<polygon style="fill:#B20820;" points="400.703,397.667 448.333,397.667 432.295,362.338 448.333,325.333 400.703,325.333 "/>
<polygon style="fill:#C40619;" points="111.292,397.667 63.667,397.667 79.705,362.338 63.667,325.333 111.292,325.333 "/>
<g>
	<path style="fill:#F9C41E;" d="M225.46,363.228c-8.058-3.542-15.652-7.706-22.766-12.397l3.608-0.982
		c13.764-3.746,21.87-17.944,18.104-31.713l-4.381-16.016l-16.012,4.357c-13.687,3.725-21.773,17.786-18.161,31.481
		c-8.733-7.698-16.469-16.304-23.132-25.605l4.489,0.291c14.235,0.922,26.508-9.879,27.413-24.125l1.052-16.571l-16.559-1.073
		c-14.1-0.913-26.268,9.677-27.377,23.722c-5.797-10.975-10.253-22.621-13.267-34.664l3.148,1.582
		c12.747,6.404,28.262,1.25,34.654-11.514l7.435-14.847l-14.828-7.45c-12.459-6.26-27.559-1.472-34.203,10.667
		c-1.18-11.434-1.076-23.065,0.385-34.683l9.297,4.671c12.747,6.404,28.262,1.25,34.654-11.514L186.448,182l-14.828-7.45
		c-11.364-5.709-24.922-2.226-32.261,7.639c1.561-5.653,3.459-11.271,5.712-16.828l6.856-2.573
		c17.223-6.465,25.97-25.634,19.537-42.814l-7.483-19.985l-20.035,7.521c-17.223,6.465-25.97,25.634-19.537,42.814l2.486,6.64
		c-2.382,5.784-4.424,11.627-6.14,17.508c-3.032-10.889-13.014-18.881-24.869-18.881H79.297v16.588c0,14.26,11.56,25.82,25.82,25.82
		h10.53c-1.345,9.288-1.916,18.593-1.746,27.832c-5.705-4.306-13.156-6.241-20.711-4.703l-16.255,3.31l3.31,16.255
		c2.845,13.974,16.479,22.995,30.452,20.149l7.121-1.45c2.32,10.698,5.64,21.147,9.907,31.203
		c-6.922-1.724-14.522-0.593-20.865,3.763l-13.674,9.391l9.391,13.674c8.073,11.755,24.146,14.74,35.901,6.667l5.446-3.74
		c5.14,7.58,10.886,14.785,17.226,21.517c-6.871,0.77-13.418,4.274-17.864,10.264l-9.888,13.319l13.319,9.888
		c11.45,8.5,27.622,6.109,36.123-5.34l4.187-5.639c9.353,6.616,19.501,12.394,30.387,17.179L225.46,363.228z"/>
	<path style="fill:#F9C41E;" d="M319.273,356.678l9.888,13.319c8.5,11.45,24.673,13.841,36.123,5.34l13.319-9.888l-9.888-13.319
		c-8.5-11.45-24.673-13.841-36.123-5.34L319.273,356.678z"/>
</g>
<path style="fill:#FE9A35;" d="M418.809,221.128c-7.554-1.538-15.006,0.397-20.71,4.703c0.17-9.239-0.401-18.544-1.746-27.832h10.53
	c14.26,0,25.82-11.56,25.82-25.82v-16.588h-16.588c-11.855,0-21.837,7.993-24.869,18.881c-1.717-5.884-3.76-11.731-6.144-17.518
	l2.553-6.816c6.492-17.331-2.33-36.661-19.705-43.174l-20.211-7.577l-7.552,20.16c-6.492,17.331,2.33,36.661,19.705,43.174
	l7.036,2.638c2.253,5.557,4.151,11.176,5.713,16.83c-7.339-9.865-20.897-13.349-32.261-7.639L325.552,182l7.435,14.846
	c6.392,12.763,21.907,17.918,34.654,11.514l9.297-4.671c1.462,11.618,1.565,23.25,0.385,34.683
	c-6.644-12.139-21.743-16.927-34.203-10.667l-14.828,7.45l7.435,14.847c6.392,12.763,21.907,17.918,34.654,11.514l3.148-1.582
	c-3.014,12.043-7.47,23.689-13.267,34.664c-1.109-14.045-13.277-24.635-27.377-23.722l-16.559,1.073l1.052,16.571
	c0.904,14.246,13.177,25.046,27.413,24.125l4.489-0.291c-6.663,9.301-14.4,17.907-23.132,25.605
	c3.613-13.695-4.474-27.756-18.161-31.481l-16.012-4.357l-4.381,16.016c-3.766,13.769,4.339,27.967,18.104,31.713l3.608,0.982
	c-7.114,4.691-14.708,8.855-22.766,12.397l8.048,18.31c30.882-13.575,55.823-35.133,73.488-61.187l5.446,3.74
	c11.755,8.073,27.829,5.087,35.901-6.667l9.39-13.674l-13.674-9.391c-6.343-4.356-13.943-5.487-20.865-3.762
	c4.267-10.056,7.586-20.505,9.907-31.204l7.121,1.45c13.973,2.845,27.607-6.176,30.453-20.149l3.309-16.255L418.809,221.128z"/>
<rect x="94.33" y="342.67" style="fill:#DD4E4E;" width="323.33" height="73"/>
<rect x="255.95" y="342.67" style="fill:#C40619;" width="161.71" height="73"/>
<polygon style="fill:#B20820;" points="94.333,342.667 111.305,325.332 111.306,342.667 "/>
<polygon style="fill:#930318;" points="417.667,342.667 400.695,325.332 400.694,342.667 "/>
<g>
</g>
<g>
</g>
<g>
</g>
<g>
</g>
<g>
</g>
<g>
</g>
<g>
</g>
<g>
</g>
<g>
</g>
<g>
</g>
<g>
</g>
<g>
</g>
<g>
</g>
<g>
</g>
<g>
</g>
</svg>
