<?xml version="1.0" encoding="iso-8859-1"?>
<!-- Generator: Adobe Illustrator 19.0.0, SVG Export Plug-In . SVG Version: 6.00 Build 0)  -->
<svg version="1.1" id="Capa_1" xmlns="http://www.w3.org/2000/svg" xmlns:xlink="http://www.w3.org/1999/xlink" x="0px" y="0px"
	 viewBox="0 0 512 512" style="enable-background:new 0 0 512 512;" xml:space="preserve">
<circle style="fill:#303F9E;" cx="256" cy="256" r="256"/>
<path style="fill:#1A237E;" d="M512,256c0-5.267-0.178-10.491-0.492-15.679L366.591,95.404L250,329.714L146,432.217l77.769,77.769
	C234.327,511.313,245.083,512,256,512C397.385,512,512,397.385,512,256z"/>
<polygon style="fill:#FFFFFF;" points="256,339.263 422.966,160.433 366.591,95.404 145.409,95.404 89.034,160.433 "/>
<polygon style="fill:#E0E0E0;" points="422.966,160.433 366.591,95.404 255.952,95.404 255.952,339.211 256,339.263 "/>
<polygon style="fill:#7AE5FE;" points="256,339.263 345,160.433 314.95,95.404 197.05,95.404 167,160.433 "/>
<g>
	<polygon style="fill:#00BED2;" points="345,160.433 314.95,95.404 255.952,95.404 255.952,339.167 256,339.263 	"/>
	<polygon style="fill:#00BED2;" points="422.966,160.433 366.591,95.404 145.409,95.404 89.034,160.433 	"/>
	<polygon style="fill:#00BED2;" points="422.966,160.433 366.591,95.404 145.409,95.404 89.034,160.433 	"/>
</g>
<polygon style="fill:#00A7AF;" points="366.591,95.404 256,95.404 255.952,160.433 422.966,160.433 "/>
<polygon style="fill:#7AE5FE;" points="145.409,95.404 167,160.433 256,95.4 345,160.433 366.591,95.404 "/>
<polygon style="fill:#00BED2;" points="366.591,95.404 256.006,95.404 345,160.433 "/>
<polygon style="fill:#7AE5FE;" points="256,95.4 255.994,95.404 256.006,95.404 "/>
<rect x="146" y="327.06" style="fill:#C69C6D;" width="220" height="105.16"/>
<rect x="255.95" y="327.06" style="fill:#A67C52;" width="110.05" height="105.16"/>
<rect x="193.53" y="350.43" style="fill:#FFDE1F;" width="124.94" height="58.41"/>
<rect x="255.95" y="350.43" style="fill:#F9C41E;" width="62.52" height="58.41"/>
<g>
</g>
<g>
</g>
<g>
</g>
<g>
</g>
<g>
</g>
<g>
</g>
<g>
</g>
<g>
</g>
<g>
</g>
<g>
</g>
<g>
</g>
<g>
</g>
<g>
</g>
<g>
</g>
<g>
</g>
</svg>
