<svg height="480pt" viewBox="0 0 480 480" width="480pt" xmlns="http://www.w3.org/2000/svg" xmlns:xlink="http://www.w3.org/1999/xlink"><linearGradient id="linear0" gradientUnits="userSpaceOnUse" x1="240" x2="240" y1="480" y2="0"><stop offset="0" stop-color="#12c2e9"/><stop offset=".056" stop-color="#19bfe9"/><stop offset=".137" stop-color="#2db6ea"/><stop offset=".235" stop-color="#4da7ea"/><stop offset=".344" stop-color="#7993eb"/><stop offset=".462" stop-color="#b279ed"/><stop offset=".497" stop-color="#c471ed"/><stop offset="1" stop-color="#f64f59"/></linearGradient><path d="m240 0c-132.546875 0-240 107.453125-240 240s107.453125 240 240 240 240-107.453125 240-240c-.148438-132.484375-107.515625-239.851562-240-240zm0 464c-123.710938 0-224-100.289062-224-224s100.289062-224 224-224 224 100.289062 224 224c-.140625 123.652344-100.347656 223.859375-224 224zm96-312c-10.695312-.03125-20.113281 7.039062-23.074219 17.316406-2.960937 10.28125 1.257813 21.277344 10.332031 26.941406l-42.105468 60.148438-29.71875-59.4375c9.65625-5.234375 14.53125-16.351562 11.832031-27s-12.28125-18.101562-23.265625-18.101562-20.566406 7.453124-23.265625 18.101562 2.175781 21.765625 11.832031 27l-29.71875 59.4375-42.105468-60.148438c9.492187-5.9375 13.621093-17.644531 9.949218-28.21875-3.667968-10.574218-14.160156-17.207031-25.285156-15.988281s-19.933594 9.964844-21.226562 21.082031c-1.292969 11.121094 5.269531 21.65625 15.820312 25.394532v121.472656c0 4.417969 3.582031 8 8 8h192c4.417969 0 8-3.582031 8-8v-121.472656c11.011719-3.878906 17.621094-15.132813 15.644531-26.640625-1.980469-11.507813-11.96875-19.910157-23.644531-19.886719zm-96 16c4.417969 0 8 3.582031 8 8s-3.582031 8-8 8-8-3.582031-8-8 3.582031-8 8-8zm-96 16c-4.417969 0-8-3.582031-8-8s3.582031-8 8-8 8 3.582031 8 8-3.582031 8-8 8zm184 128h-176v-94.625l41.449219 59.199219c1.613281 2.3125 4.328125 3.601562 7.140625 3.394531s5.308594-1.878906 6.570312-4.402344l32.839844-65.679687 32.800781 65.6875c1.261719 2.523437 3.757813 4.195312 6.570313 4.402343 2.8125.207032 5.523437-1.082031 7.140625-3.390624l41.488281-59.210938zm8-128c-4.417969 0-8-3.582031-8-8s3.582031-8 8-8 8 3.582031 8 8-3.582031 8-8 8zm0 0" fill="url(#linear0)"/></svg>