<svg id="Flat" height="512" viewBox="0 0 512 512" width="512" xmlns="http://www.w3.org/2000/svg"><g><path d="m24 24h464v400h-464z" fill="#b3e9ff"/><path d="m64 152h384v192h-384z" fill="#e1f6ff"/><path d="m24 24h464v48h-464z" fill="#25b1fa"/><g fill="#f0fbff"><path d="m448 40h16v16h-16z"/><path d="m112 40h16v16h-16z"/><path d="m48 40h16v16h-16z"/><path d="m80 40h16v16h-16z"/></g><g><path d="m481.25 476.951a31.556 31.556 0 0 1 -46.3 1.807l-122.95-122.958 45.255-45.255 122.437 123.7a31.556 31.556 0 0 1 1.558 42.706z" fill="#faa231"/><g><path d="m357.255 310.549-45.255 45.251 20.453 20.454a150.143 150.143 0 0 0 47.147-43.134z" fill="#cc751f"/><circle cx="258.476" cy="248" fill="#faa231" r="136"/></g><circle cx="258.476" cy="248" fill="#feecd6" r="104"/></g><path d="m257.342 191.64 16.954 34.353 37.911 5.509-27.433 26.74 6.476 37.758-33.908-17.827-33.909 17.827 6.476-37.758-27.433-26.74 37.911-5.509z" fill="#fa5d3f"/><path d="m56 104h64v16h-64z" fill="#e1f6ff"/><path d="m136 104h16v16h-16z" fill="#e1f6ff"/></g></svg>