<svg id="Layer_3" enable-background="new 0 0 64 64" height="512" viewBox="0 0 64 64" width="512" xmlns="http://www.w3.org/2000/svg" xmlns:xlink="http://www.w3.org/1999/xlink"><linearGradient id="SVGID_1_" gradientUnits="userSpaceOnUse" x1="32" x2="32" y1="63" y2="1"><stop offset="0" stop-color="#9f2fff"/><stop offset="1" stop-color="#0bb1d3"/></linearGradient><path d="m26 17c-7.168 0-13 5.832-13 13s5.832 13 13 13 13-5.832 13-13-5.832-13-13-13zm0 24c-6.065 0-11-4.935-11-11s4.935-11 11-11 11 4.935 11 11-4.935 11-11 11zm-2.249-19.716c.731-.189 1.488-.284 2.249-.284v2c-.593 0-1.182.074-1.75.22zm-2.026.794.951 1.76c-2.267 1.226-3.676 3.587-3.676 6.162 0 1.23.324 2.441.936 3.499l-1.731 1.002c-.788-1.363-1.205-2.919-1.205-4.501 0-3.311 1.811-6.346 4.725-7.922zm30.275 30.922c-1.654 0-3 1.346-3 3s1.346 3 3 3 3-1.346 3-3-1.346-3-3-3zm0 4c-.551 0-1-.448-1-1s.449-1 1-1 1 .448 1 1-.449 1-1 1zm-11.293-13.707 2 2-1.414 1.414-2-2zm4 4 4 4-1.414 1.414-4-4zm-43.707 3.707h37.878l8.728 9.812c1.236 1.391 3.012 2.188 4.873 2.188 3.596 0 6.521-2.926 6.521-6.521 0-1.86-.797-3.637-2.188-4.873l-.68-.606h6.868v-50h-62zm56 5.479c0 2.493-2.028 4.521-4.521 4.521-1.29 0-2.521-.553-3.378-1.517l-13.66-15.356c1.851-1.241 3.445-2.836 4.686-4.687l15.356 13.66c.964.857 1.517 2.088 1.517 3.379zm-31-11.479c-8.271 0-15-6.729-15-15s6.729-15 15-15 15 6.729 15 15-6.729 15-15 15zm27.883 4-12.733-11.327c1.174-2.308 1.85-4.911 1.85-7.673 0-9.374-7.626-17-17-17s-17 7.626-17 17 7.626 17 17 17c2.762 0 5.365-.676 7.673-1.851l3.426 3.851h-34.099v-38h58v38zm7.117-46v6h-58v-6zm-54 4h-2v-2h2zm4 0h-2v-2h2zm4 0h-2v-2h2z" fill="url(#SVGID_1_)"/></svg>