<svg height="512" viewBox="0 0 512 512" width="512" xmlns="http://www.w3.org/2000/svg"><g id="Flat"><rect fill="#fcac1f" height="96" rx="48" transform="matrix(.978 .21 -.21 .978 91.93 -35.57)" width="336" x="45.33" y="366.772"/><path d="m111.04 347.401h32v24h-32z" fill="#f35244" transform="matrix(.978 .21 -.21 .978 78.366 -18.672)"/><path d="m95.909 417.793h32v24h-32z" fill="#f35244" transform="matrix(.978 .21 -.21 .978 92.821 -13.92)"/><path d="m122.252 419.742-15.643-3.362 10.087-46.928 15.643 3.362 20.102 20.687-3.363 15.642z" fill="#4d5e78"/><path d="m291.442 459.824h32v24h-32z" fill="#f35244" transform="matrix(-.978 -.21 .21 -.978 508.864 997.721)"/><path d="m306.573 389.432h32v24h-32z" fill="#f35244" transform="matrix(-.978 -.21 .21 -.978 553.581 861.688)"/><path d="m312.23 411.482 15.643 3.363-10.088 46.928-15.642-3.363-20.102-20.686 3.363-15.643z" fill="#4d5e78"/><path d="m292 392-36 16-14.929 14.929a12.828 12.828 0 0 0 0 18.142 12.83 12.83 0 0 0 15.437 2.068l47.492-27.139z" fill="#d6d6d4"/><path d="m292 392-20-40 21.458-25.749a80 80 0 0 0 18.542-51.215v-19.036h-168a24 24 0 0 0 -24 24v88h48v-64h80l-21.372 26.715a24 24 0 0 0 -1.611 27.712l30.983 49.573z" fill="#4d5e78"/><path d="m120 368-21.791 5.448a13.477 13.477 0 0 0 -10.209 13.075 13.477 13.477 0 0 0 13.477 13.477h66.523v-32z" fill="#d6d6d4"/><path d="m464 224-32 16-43.56-49.78-12.44-14.22h-32v-48h36a24.012 24.012 0 0 1 19.2 9.6l1.8 2.4z" fill="#fec9a3"/><path d="m344 128v48h-32v80h-104v-80h-40v-48z" fill="#f35244"/><path d="m344 128v48h-32v80h-104v-31.7a466.837 466.837 0 0 0 123.52-96.3z" fill="#e64c3f"/><path d="m168 128v48h-50.22a24.005 24.005 0 0 1 -20.73-11.91l-4.88-8.37-44.17-75.72 32-8 36.71 42.82 11.29 13.18z" fill="#fec9a3"/><g fill="#3b495e"><path d="m48 80-24-40 32-16 16 16 8 32z"/><path d="m432 240 24 24 24 8 8-32-16-8-8-8z"/><path d="m401 140-12.56 50.22-12.44-14.22h-12l12-48h4a24.012 24.012 0 0 1 19.2 9.6z"/></g><ellipse cx="388" cy="132" fill="#4d5e78" rx="17.668" ry="22.085" transform="matrix(.707 -.707 .707 .707 20.304 313.019)"/><path d="m144.73 128-21.82 48h-5.13a24.005 24.005 0 0 1 -20.73-11.91l-4.88-8.37 24.54-40.9 11.29 13.18z" fill="#3b495e"/><ellipse cx="108" cy="164" fill="#4d5e78" rx="17.668" ry="22.085" transform="matrix(.707 -.707 .707 .707 -84.333 124.402)"/><path d="m288 80h-80v40a24 24 0 0 0 24 24h32a24 24 0 0 0 24-24z" fill="#fec9a3"/><path d="m271.1 67.7-18.465 24.62-25.478-25.477-11.314 11.314 27.094 27.094-26.738 36.149 12.801 9.6 30.9-41.7 24-32z" fill="#313b4c"/><path d="m288 72v8h-96v-8a48 48 0 0 1 71.2-42.02 46.02 46.02 0 0 1 5.03 3.2 47.448 47.448 0 0 1 5.71 4.88 48.3 48.3 0 0 1 5.96 7.25 47.728 47.728 0 0 1 8.1 26.69z" fill="#4d5e78"/><path d="m288 72v8h-87.73a462.662 462.662 0 0 0 62.93-50.02 46.02 46.02 0 0 1 5.03 3.2 47.448 47.448 0 0 1 5.71 4.88 48.3 48.3 0 0 1 5.96 7.25 47.728 47.728 0 0 1 8.1 26.69z" fill="#485870"/><path d="m226.58 40.43-5.16 15.14-22.87-7.8a48.275 48.275 0 0 1 11.24-13.07z" fill="#313b4c"/><path d="m279.9 45.31-20.41 9.89-6.98-14.4 15.72-7.62a47.448 47.448 0 0 1 5.71 4.88 48.3 48.3 0 0 1 5.96 7.25z" fill="#313b4c"/></g></svg>